<svg height="645pt" preserveAspectRatio="xMidYMid meet" viewBox="0 0 645 645" width="645pt" xmlns="http://www.w3.org/2000/svg"><path d="m995 5960c-135-36-228-90-326-191-64-64-130-165-157-239-42-117-41-91-39-1640 2-1114 6-1487 15-1525 7-27 28-82 46-122 96-202 256-332 471-384 74-18 123-19 693-19h612v-257c0-142-5-278-11-303-16-72-69-167-124-223-84-85-196-132-325-138-71-3-115-23-165-74-66-67-82-160-44-245 25-54 42-75 94-109l40-26 1430-3c1086-2 1440 0 1473 9 88 24 162 125 162 221 0 78-53 164-122 199-47 24-61 27-131 30-63 3-157 31-213 64s-133 112-163 166c-54 100-60 141-61 425l-1 264h603c332 1 621 3 643 6 217 29 425 180 519 377 81 169 76 51 73 1707-1 811-5 1484-9 1495-3 11-11 40-18 65-17 63-65 155-116 221-98 127-225 210-384 249-72 18-165 18-2235 18s-2163-1-2230-18z" transform="matrix(.1 0 0 -.1 0 645)"/></svg>