<?xml version="1.0" standalone="no"?>
<!DOCTYPE svg PUBLIC "-//W3C//DTD SVG 20010904//EN"
 "http://www.w3.org/TR/2001/REC-SVG-20010904/DTD/svg10.dtd">
<svg version="1.0" xmlns="http://www.w3.org/2000/svg"
 width="645.000000pt" height="645.000000pt" viewBox="0 0 645.000000 645.000000"
 preserveAspectRatio="xMidYMid meet">
<metadata>
Created by potrace 1.11, written by Peter Selinger 2001-2013
</metadata>
<g transform="translate(0.000000,645.000000) scale(0.100000,-0.100000)"
fill="#000000" stroke="none">
<path d="M995 5960 c-135 -36 -228 -90 -326 -191 -64 -64 -130 -165 -157 -239
-42 -117 -41 -91 -39 -1640 2 -1114 6 -1487 15 -1525 7 -27 28 -82 46 -122 96
-202 256 -332 471 -384 74 -18 123 -19 693 -19 l612 0 0 -257 c0 -142 -5 -278
-11 -303 -16 -72 -69 -167 -124 -223 -84 -85 -196 -132 -325 -138 -71 -3 -115
-23 -165 -74 -66 -67 -82 -160 -44 -245 25 -54 42 -75 94 -109 l40 -26 1430
-3 c1086 -2 1440 0 1473 9 88 24 162 125 162 221 0 78 -53 164 -122 199 -47
24 -61 27 -131 30 -63 3 -157 31 -213 64 -56 33 -133 112 -163 166 -54 100
-60 141 -61 425 l-1 264 603 0 c332 1 621 3 643 6 217 29 425 180 519 377 81
169 76 51 73 1707 -1 811 -5 1484 -9 1495 -3 11 -11 40 -18 65 -17 63 -65 155
-116 221 -98 127 -225 210 -384 249 -72 18 -165 18 -2235 18 -2070 0 -2163 -1
-2230 -18z"/>
</g>
</svg>
